<?xml version="1.0" encoding="UTF-8"?>
<svg version="1.1" viewBox="0 0 1800 1000" width="450" height="250" xmlns="http://www.w3.org/2000/svg">
<path transform="translate(0)" d="m0 0h1800v1e3h-1800z" fill="#E5EEFD"/>
<path transform="translate(1762,406)" d="m0 0 3 3 14 23 12 19 8 12 1 1v536h-1800v-320h2l2-7 4 2 1 4 10-2 90-22-27-7-24-10-19-10v-3l10-2 9-3 32-10 33-7 16-3 21-3 26-4 49-5 76-6 37-5 23-5 1-11h4l2 8 10-1 38-8 2-1 1-6v-5l4-1 2 4v4l10-1 4-4 4 1h14l23-4 18-3 40-4 37-3 69-4 38-3 50-3 77-6 49-6 21-3 23-2 31-1 16-1h16l-1 5-10 5-33 13-29 12-60 26-60 25-28 11-12 5-12 4h-2v2l18-3 22-5h12l4-3 11-1 1 4 8-1 3 1 2-7 6-3 7-3 4-2h6l1 1 1 14 37-1 20-1 2-10 3-9 2-1h6l1 3 1 14 1 3h23l2-23 3-3 7-2 7-3h7l4 5 7 3 3 12 2 10v4h19l6-9 3-1 11 6 7 2 6 4h15l3 1h20l5-12 2-2 5 1 10 5h26l5 4h10l16-2 5-2 11-1h9l23-6 25-1 15-2 5-12 2-7h3l5 18 1 1 24 2 19 1 2-5 2-2 4 4 3 4v2l16 2 11 2 1-2 3 35 4 22 5 19 6 17 2 4 31 1-5-24-5-33v-6h2l6 16 10 19 8 12 7 10 2 6h35v-3l-6-10-8-15-10-24-9-27-6-23-4-25v-9l17-2 6-5 2-4v-9l-4-6-11-4 1-14 7-12 1 3-1 2v6l14 13 8 7 10 11 3 4v3h-2l3 14 2 4-1 2h-3l1 4-2 2 1 5 4 7 5 6v2l5 2 1 2v33l11 1v1l-9 1-11 51-2 6h17l1-6 10-29 2-1 2 21v15h18v-28l1-28-8-1v-1l8-1v-5l-4-1 6-2 2-1v-27l-2-4v-12l-1-6 12 1 5 2 4-2 4-10 4 4 3 6 8 5 5 10 4 13h18l26-2 3-26 3-9 4 1 2 3 4 28v3h9l33-3 7-2h13l4-3 6-2h10l4-8 5-16 29-87 5-17 17-48 6-16z" fill="#FDFDFD"/>
<path transform="translate(88,355)" d="m0 0h7l2 1v2l9 3 43 16 41 15 61 21 37 13 52 18 40 14 25 9-3 3-30 13-20 9 1 3 18 8 30 15 19 10 29 15 12 7v2h-8l-6-1-2 4h-10l-2-7h-3v8l-2 4-15 4-25 5-10 1-3-9h-2l-1 11-6 2-18 4-37 5-87 7-45 5-26 4-36 6-27 6-35 11-6 2-10 1v3l5 2 25 12 20 7 21 5-1 2-53 13-37 9-10 2-3-6h-2l-2 6h-2v-296l43-14 36-12z" fill="#E6EFFE"/>
<path transform="translate(1362,401)" d="m0 0h12l9 4 11 8 10 8 13 7 4-1 5-6 5-2 9 1 27 8 14 3 5-1 8-5h2l-1 7-9 10-6 4-12 3-19-2-8-1-2 3 7 2 20 3 44 5 43 5 98 12 69 9 13 2-3 11-30 90-4 11-3 2h-9l-9 4-1 1h-13l-7 2-33 3h-7l-2-1-3-16-2-15-2-3h-3l-3 14-2 20-1 1-26 2h-18l-4-9-3-10-4-6-8-5-4-8-5 10-5 2-4-2-10-1-2-1 2 6v12l2 4v27l-5 4v5l-3 1 4 2-2 56h-18l-2-29-1-6-12 35h-17l2-11 10-46 3-2-4-1-1-2v-31l-8-8-6-8-2-4 1-5 2-7h3l-4-7-1-4v-7h2l-4-7-12-13-13-12-7-6v-6-1l-5 8-1 13 10 4 4 5 1 2v9l-4 6-5 4-5 1h-12l4 29 5 21 9 29 10 24 8 16 7 13 2 4-2 1h-33l-3-3-6-10-9-13-9-16-7-16-1-6h-2l7 45 4 18-1 1-31-1-5-10-7-22-5-24-3-27v-25l2-23 2-10h-17l-1-2 15-69 1-7-7-8-12-12-4-3 1-4 12-12 5-4 5 4v2l4 2 13 11 3 2 52 1 7 1 3 2-3-4-12-4 2-2-9-1-12 5-1 1-15-1-10-11-6-12-1-4v-10l4-9 4-5z" fill="#E6EFFD"/>
<path transform="translate(1511,157)" d="m0 0h33l21 5 21 9 12 7 12 9 10 9 7 7 9 12 6 10 6 15 4 18 1 9v39l-2 15 9 3 7 6 7 9 3 5 1 7v17l3-12 2-1h14l14 3 14 7 10 9 6 8 3 5v5l-11-1-42-11-52-13-119-30-38-10-36-12-44-17-66-25-21-8-34-13-40-15-31-12-29-11v-2h-2l2-4 10-9 18-11 16-6h25l13 4 14 7 13 10 8 10 6 12 4 12 2 13v-18l5-7 13-10 14-7 11-3 14-1 15 2 15 6 15 8-1 7-6 16-6 21-2 11v4l5-22 6-20 8-16 9-13 13-14 11-9 10-8 13-8 14-6 19-5z" fill="#FDFDFE"/>
<path transform="translate(1100,183)" d="m0 0 9 3 20 7 31 12 45 17 68 26 40 15 18 7 42 16 40 15 36 14 33 11 38 10 69 17 42 11 60 15 34 9 42 10 33 9v57l-5-5-10-16-13-21-9-15-3 3-20 57-7 20-20-2-62-8-122-15-46-5-31-4-12-2-2-2 3-4 8 1 19 2 12-3 8-6 6-7 2-7-12 7-14-2-26-8-8-2v-2h-3l-1-4 11-35 8-30-15-2-41-7-97-15-79-13-17-3-1-4 16-47 2-7-28-2-36-3-7-3-9-9-7-9-9-12-13-16-10-12z" fill="#ABC8FC"/>
<path transform="translate(844,119)" d="m0 0h23l18 3 19 7 17 9 16 12 12 11 7 7 5 7 1 9 13-4 6-1h9l15 4 5 3 1 2-1 11-1 9 5-17 5-10 8-10 9-8 16-8 7-2h18l15 5 11 7 12 11 4 7-1 4h-9l-7-3v-2l-8 1-34 14-49 20-34 15-20 8-21 9-13 5-35 15-72 30-58 24-57 24-24 10-23 9-18 7-10 2v-31l2-21 6-18 6-11 10-14 12-12 8-7 13-8 19-8 21-5 9-1 2-1-2-2 1-10 8-28 5-12 6-10 9-12 5-6 8-7 11-10 14-9 12-6 17-5z" fill="#FDFDFE"/>
<path transform="translate(1413,508)" d="m0 0 1 3-1 2v6l14 13 8 7 10 11 3 4v3h-2l3 14 2 4-1 2h-3l1 4-2 2 1 5 4 7 5 6v2l5 2 1 2v33l11 1v1l-9 1-11 51-2 6h17l1-6 10-29 2-1 2 21v15h18v-28l1-27 2 4v9l3-1 11-1h39l52 1 50 2 14 1-2 10-10 29-11 32-4 9-4 1-10-19-4-9-1-1h-8l-2 9-1 15-1 1h-5l-13-11-8-1-1 1v8l2 6-1 6h-17l-11-1-4-3 1-7 8-11 10-12 7-10 5-5 4-5 1-4-5 1-5 5-12 16-8 11-6 8-3 6-12 5-5 2-3-2-1-17-2-4-5 1-5 5-6 8-4 9-4 2-5-1-4-3h-6l-3 5-2 1-31 2-2-1 2-5 1-6-5 3-4 8-4 2-22 3h-8l-3-13-6-1-13 8h-4l-4-9h-5l-5 8-3 10-2 2-7 1h-8l-4-11-3-14-7 1-5 3-4-2-3-3-5 1-4 12-6 2-3-2-8-1-2 4-1 1-9 2-3 8-17 2-21 2-60 8-29 5-16 4-3 1h-7l-21-12-23-11-23-9-19-6-10-2v-3l13-4 29-10 25-7 31-9 60-15 40-8 50-9 26-4 21-3 3 1 9 25 2 4 31 1-5-24-5-33v-6h2l6 16 10 19 8 12 7 10 2 6h35v-3l-6-10-8-15-10-24-9-27-6-23-4-25v-9l17-2 6-5 2-4v-9l-4-6-11-4 1-14z" fill="#E5EEFD"/>
<path transform="translate(19,288)" d="m0 0h15l18 2 16 5 16 8 11 7 13 11 8 8 4-2 14-6 5-1h14l9 2 14 7 9 7 6 8 5 11 3 15-2-16 4-4 18-5h15l10 2 14 5 15 9 12 12 7 11 5 14v8h2l-1-10 2-5 5-1h14l15 4 12 6 5 6 1 6 5-10 8-12 12-14 12-10 14-8 13-5 13-3 10-1h11l13 2 16 5 19 10 14 11 8 8 8 11 4 8 1 9-5 5-17 8-29 12-28 11-19 8-21 9-3 1h-9l-28-10-52-18-92-32-43-15-52-19-31-12-7-3v-2h-9l-35 12-32 10-17 6h-4v-93l9-2z" fill="#FDFDFE"/>
<path transform="translate(95,357)" d="m0 0 9 3 42 16 44 16 61 21 37 13 52 18 40 14 25 9-3 3-30 13-20 9 1 3 18 8 30 15 19 10 29 15 12 7v2h-8l-6-1-2 4h-10l-2-7h-3l-2 4-7-1-26-8-54-16-37-11-29-9-40-12-52-16-4-2 4-3 28-8 19-5h3l-2-4-16-11-19-14-18-13-12-9-19-14-13-10-18-13-15-10-6-5z" fill="#ABC8FC"/>
<path transform="translate(1404,533)" d="m0 0 10 3 5 4 2 4v9l-4 6-5 4-5 1h-12l4 29 5 21 9 29 10 24 8 16 7 13 2 4-2 1h-33l-3-3-6-10-9-13-9-16-7-16-1-6h-2l7 45 4 18-1 1-31-1-5-10-7-22-5-24-3-27v-25l2-23 2-10 17-1-1-15 5-6 6-2 16-1z" fill="#FBA906"/>
<path transform="translate(1323,438)" d="m0 0 6 4v2l4 2 13 11 3 2 52 1 7 1 3 3 1 7v25l4 4v6l-1 2h-2l-2 5-4 7-1 13-2 1-30 1-16 1-7 3-3 4 1 15-1 1h-34l-1-2 15-69 1-7-7-8-12-12-4-3 1-4 12-12z" fill="#414872"/>
<path transform="translate(1362,401)" d="m0 0h12l9 4 11 8 10 8 13 7 4-1 5-6 5-2 9 1 27 8 14 3 5-1 8-5h2l-1 7-9 10-6 4-12 3-19-2-8-1-3 5-9 6-4 1h-9l-12-3-9-3h-6l-12 5-1 1-15-1-10-11-6-12-1-4v-10l4-9 4-5z" fill="#F36F5F"/>
<path transform="translate(1450,576)" d="m0 0 4 1 1 4h-2l1 4 3 3 3 4 5 1 5 3h8l2-1h7l10 4h6l3 3 1 3v27l-5 4v5l-3 1 4 2-2 56h-18l-2-29-1-6-12 35h-17l2-11 10-46 3-2-4-1-1-2v-31l-8-8-6-8-2-4 2-10z" fill="#414872"/>
<path transform="translate(1413,508)" d="m0 0 1 3-1 2v6l14 13 8 7 10 11 3 4v3h-2l3 14 2 4-1 2h-3l1 4-2 2 1 5 4 7 5 6v2l5 2 1 2v33l11 1v1l-9 1-2 3v-3l-5-1 1-10 1-7 1-8v-9l-1-2h-2l-2 10-3 3h-18l-23-2-5-3-2-7-3-2-4-17-2-15v-9l17-2 6-5 2-4v-9l-4-6-11-4 1-14z" fill="#E6EFFD"/>
<path transform="translate(0,606)" d="m0 0 16 8 20 11 14 8 19 9 20 7 21 5-1 2-53 13-37 9-10 2-3-6h-2l-2 6h-2z" fill="#ABC8FC"/>
<path transform="translate(1323,438)" d="m0 0 6 4v2l4 2 13 11 3 3-5 3-2 6-1 65 2 6 4 3 2 11-1 5h-34l-1-2 15-69 1-7-7-8-12-12-4-3 1-4 12-12z" fill="#5284E7"/>
<path transform="translate(1401,605)" d="m0 0 4 2 2 7 4 2 23 2h18l3-5 1-8 4 1 1 2v9l-1 12-2 8v5l4 1 1 5-2 9-4 4h-20l-9 2-1 8v2l3 1-1 6-3-4-11-25-10-30z" fill="#FDFDFD"/>
<path transform="translate(1404,533)" d="m0 0 10 3 5 4 2 4v9l-4 6-5 4-18 2-15-1h-22l-4-3-9-1 4-2-1-15 5-6 6-2 16-1z" fill="#F36D62"/>
<path transform="translate(438,115)" d="m0 0 6 1 1 1v7l-5 3-38 10-12 2-8 2h-4v2l-32 8-18 5h-7v-6l4-3 9-4 13-6 21-5 6-2 4-3 13-3 13-1 25-7z" fill="#F8FAFD"/>
<path transform="translate(448,124)" d="m0 0 2 2-8 5-7 1v2l-28 8-3 3-4 11-10 24-5 10-3 3h-4l-1-15-1-29-9 1-36 9-3 1h-7v-3l40-11 13-3h4v-2l15-4 12-2 35-9z" fill="#AAC7FB"/>
<path transform="translate(1240,364)" d="m0 0 4 1 8 7 7 6v2l4 2 9 9 8 7 15 14 8 7 10 10 9 7-6 9-4 3-5-1-9-10-15-15-7-8-11-11-7-8-9-12-1-5-5-6-3-5z" fill="#FCAA06"/>
<path transform="translate(170,480)" d="m0 0h4l1 3-6 7-2 7 5 13-1 5-5 3-44 22-21 12-4-1 2-4 14-12 10-9 21-21h2l2-4 15-15z" fill="#FEFEFE"/>
<path transform="translate(1480,595)" d="m0 0h7l10 4h6l3 3 1 3v27l-4 3h-23l-6-3 1-26 4-10z" fill="#5284E7"/>
<path transform="translate(1417,504)" d="m0 0 6 3 10 10 7 9 8 11 10 16 2 4v5l-5 2-1 8v3l3 6-1 2-2-3v-3l-6-1 3-1-4-7-1-4v-7h2l-4-7-12-13-13-12-7-6v-6l4-8z" fill="#FCAA06"/>
<path transform="translate(1483,565)" d="m0 0h9l6 4 3 4 4 16v8l-2 3h-6l-14-5-7-4-4-7v-8l5-8z" fill="#F3715C"/>
<path transform="translate(357,90)" d="m0 0 7 1 11 9 13 11 11 9v3l-21 5-5-1-15-30z" fill="#A8C5FB"/>
<path transform="translate(1457,551)" d="m0 0 3 3 3 6-1 5-5 5v4l14 1 2 1v8l4 7 6 3-3 2-2 1h-8l-7-4-4-1-3-4v-2l-3-1v-4h3l-2-5-2-2v-2h2v-8l6-2z" fill="#FCFBF9"/>
<path transform="translate(1766,485)" d="m0 0 2 1-1 4v174l-1 28h-1v-206z" fill="#E6EFFE"/>
<path transform="translate(1480,664)" d="m0 0h1l2 21v15l-14 1h-19l1-3v2h17l1-6 10-29z" fill="#D1E1FD"/>
<path transform="translate(378,142)" d="m0 0h7l-1 2-4 1-9 4-40 10-3 1h-7v-3l40-11z" fill="#5284E8"/>
<path transform="translate(448,124)" d="m0 0 2 2-8 5-34 9h-11v2h-6v-3l52-14z" fill="#5284E8"/>
<path transform="translate(1410,495)" d="m0 0 6 5v6l-1 2h-2l-2 5-4 7-1 13h-2v-21l3-13z" fill="#5A8AE9"/>
<path transform="translate(1504,697)" d="m0 0h48l-1 3h-47z" fill="#ABC8FC"/>
<path transform="translate(1389,451)" d="m0 0 9 1 3 4 8 3 3 4v8h-1l-1-7-2-2-7-1-25-1v-1l11-1 3-3z" fill="#DCE8FD"/>
<path transform="translate(1368,637)" d="m0 0h2l6 16 1 3-2 7-3 1-2-6-2-15z" fill="#FCFDFE"/>
<path transform="translate(1458,604)" d="m0 0 3 1 1 2v33l11 1v1l-9 1-2 3v-3l-5-1 1-10 1-7 1-8v-9z" fill="#ACC8FC"/>
<path transform="translate(1408,235)" d="m0 0 1 2-7 23-3 15-1 8-2-4 1-11 6-22 4-10z" fill="#E6EFFE"/>
<path transform="translate(1427,533)" d="m0 0 4 2 10 10 7 9v3h-2l3 14 2 4h-4l-3-11-1-13-12-13z" fill="#FEFEFE"/>
<path transform="translate(1472,585)" d="m0 0 8 8 3 2-5 2h-8l-3-3h3z" fill="#D9E6FD"/>
<path transform="translate(1447,575)" d="m0 0 3 2h-3l1 4-2 2 1 5 4 7 5 6-1 2-7-8-5-9-1-9z" fill="#ABC8FC"/>
<path transform="translate(1387,452)" d="m0 0h2v2l2 1-2 4h-15l5-4z" fill="#FEFEFE"/>
<path transform="translate(1382,696)" d="m0 0 5 1h12l3-1 1 4h-22z" fill="#ACC8FC"/>
<path transform="translate(4,673)" d="m0 0 4 2 1 4 2 2-11 1v-2h2z" fill="#E6EFFE"/>
<path transform="translate(1399,453)" d="m0 0 17 4-2 2-5 1-9-4-4-2z" fill="#FCFDFE"/>
<path transform="translate(1453,581)" d="m0 0 4 2 3 4 4 5-4 1-4-5v-2l-3-1z" fill="#A8C5F8"/>
<path transform="translate(1459,715)" d="m0 0 3 1-1 7-3 3-1-1v-7z" fill="#FEFEFE"/>
<path transform="translate(1362,457)" d="m0 0h7l7 2v1h-14z" fill="#EEDFC1"/>
<path transform="translate(449,550)" d="m0 0 11 2v1l-11 1-4 1 2-4z" fill="#E6EFFE"/>
</svg>
